<?xml version="1.0" encoding="UTF-8" standalone="no"?>
<svg width="16px" height="16px" version="1.1" xmlns="http://www.w3.org/2000/svg" xmlns:xlink="http://www.w3.org/1999/xlink" xml:space="preserve" xmlns:serif="http://www.serif.com/" style="fill-rule:evenodd;clip-rule:evenodd;stroke-linejoin:round;stroke-miterlimit:2;">
<circle cx="8" cy="8" r="8" style="fill:#e4e7eb;"/>
  <g>
    <path d="M8.121,11.708L8.348,11.621C9.454,11.171 10.661,11.028 11.842,11.208L13.211,11.591C13.762,11.736 14.232,11.631 14.464,11.169C14.689,10.708 14.5,10.144 14.043,9.911C13.451,9.616 12.776,9.455 12.127,9.355C10.697,9.136 9.234,9.287 7.879,9.793L7.652,9.88C6.276,10.43 5.044,10.429 4.158,10.292C3.762,10.231 3.352,10.141 2.975,9.99L2.789,9.909C2.66,9.844 2.517,9.811 2.373,9.811C1.858,9.811 1.435,10.234 1.435,10.749C1.435,11.104 1.637,11.431 1.956,11.589C2.547,11.884 3.224,12.046 3.873,12.145C4.968,12.314 6.462,12.32 8.121,11.707L8.121,11.708Z" style="fill:#2b303b;"/>
    <path d="M11.842,8.458C10.739,8.29 9.611,8.403 8.564,8.788L8.348,8.871C6.931,9.445 5.385,9.626 3.873,9.396C3.224,9.296 2.548,9.134 1.956,8.839C1.637,8.681 1.434,8.354 1.434,7.999C1.434,7.484 1.858,7.061 2.372,7.061C2.486,7.061 2.6,7.082 2.707,7.123L2.789,7.159C3.216,7.359 3.696,7.471 4.158,7.542C4.998,7.671 6.147,7.68 7.436,7.212L7.652,7.129C9.069,6.555 10.615,6.374 12.127,6.604C12.776,6.704 13.451,6.866 14.043,7.161C14.5,7.394 14.689,7.958 14.463,8.419C14.232,8.881 13.762,8.986 13.21,8.841L11.842,8.458Z" style="fill:#6b7280;"/>
    <path d="M11.842,5.708C10.739,5.54 9.611,5.653 8.564,6.038L8.348,6.121C6.931,6.695 5.385,6.876 3.873,6.646C3.224,6.546 2.548,6.384 1.956,6.089C1.637,5.931 1.434,5.604 1.434,5.249C1.434,4.734 1.858,4.311 2.372,4.311C2.486,4.311 2.6,4.332 2.707,4.373L2.789,4.409C3.216,4.609 3.696,4.721 4.158,4.793C4.998,4.921 6.147,4.93 7.436,4.462L7.652,4.379C9.069,3.805 10.615,3.624 12.127,3.854C12.776,3.954 13.451,4.116 14.043,4.411C14.5,4.644 14.689,5.208 14.463,5.669C14.232,6.131 13.762,6.236 13.21,6.091L11.842,5.708Z" style="fill:#5e81ac;"/>
  </g>
</svg>
