<?xml version="1.0" encoding="UTF-8" standalone="no"?>
<svg width="100%" height="100%" viewBox="0 0 256 256" version="1.1" xmlns="http://www.w3.org/2000/svg">
  <circle cx="128" cy="128" r="128" style="fill:#2b303b;"/>
  <g>
    <path d="M189.472,91.328C171.824,88.64 153.776,90.448 137.024,96.608L133.568,97.936C110.896,107.12 86.16,110.016 61.968,106.336C51.584,104.736 40.768,102.144 31.296,97.424C26.192,94.896 22.944,89.664 22.944,83.984C22.944,75.744 29.728,68.976 37.952,68.976C39.776,68.976 41.6,69.312 43.312,69.968L44.624,70.544C51.456,73.744 59.136,75.536 66.528,76.688C79.968,78.736 98.352,78.88 118.976,71.392L122.432,70.064C145.104,60.88 169.84,57.984 194.032,61.664C204.416,63.264 215.216,65.856 224.688,70.576C232,74.304 235.024,83.328 231.408,90.704C227.712,98.096 220.192,99.776 211.36,97.456L189.472,91.328Z" style="fill:#dde5ee;"/>
    <path d="M189.472,135.328C171.824,132.64 153.776,134.448 137.024,140.608L133.568,141.936C110.896,151.12 86.16,154.016 61.968,150.336C51.584,148.736 40.768,146.144 31.296,141.424C26.192,138.896 22.944,133.664 22.944,127.984C22.944,119.744 29.728,112.976 37.952,112.976C39.776,112.976 41.6,113.312 43.312,113.968L44.624,114.544C51.456,117.744 59.136,119.536 66.528,120.672C79.968,122.736 98.352,122.88 118.976,115.392L122.432,114.064C145.104,104.88 169.84,101.984 194.032,105.664C204.416,107.264 215.216,109.856 224.688,114.576C232,118.304 235.024,127.328 231.408,134.704C227.712,142.096 220.192,143.776 211.36,141.456L189.472,135.328Z" style="fill:#9db3cd;"/>
    <path d="M129.936,187.328L133.568,185.936C151.264,178.736 170.576,176.448 189.472,179.328L211.376,185.456C220.192,187.776 227.712,186.096 231.424,178.704C235.024,171.328 232,162.304 224.688,158.576C215.216,153.856 204.416,151.28 194.032,149.68C171.152,146.176 147.744,148.592 126.064,156.688L122.432,158.08C100.416,166.88 80.704,166.864 66.528,164.672C60.192,163.696 53.632,162.256 47.6,159.84L44.624,158.544C42.56,157.504 40.272,156.976 37.968,156.976C29.728,156.976 22.96,163.744 22.96,171.984C22.96,177.664 26.192,182.896 31.296,185.424C40.752,190.144 51.584,192.736 61.968,194.32C79.488,197.024 103.392,197.12 129.936,187.312L129.936,187.328Z" style="fill:#5e81ac;"/>
  </g>
</svg>
